<?xml version="1.0" encoding="UTF-8" standalone="no"?>
<!DOCTYPE svg PUBLIC "-//W3C//DTD SVG 1.1//EN" "http://www.w3.org/Graphics/SVG/1.1/DTD/svg11.dtd">
<svg width="100%" height="100%" viewBox="0 0 430 430" version="1.1" xmlns="http://www.w3.org/2000/svg" xmlns:xlink="http://www.w3.org/1999/xlink" xml:space="preserve" xmlns:serif="http://www.serif.com/" style="fill-rule:evenodd;clip-rule:evenodd;stroke-linejoin:round;stroke-miterlimit:2;">
    <g transform="matrix(1,0,0,1,-434.33,-30.7596)">
        <g transform="matrix(0.74354,0,0,0.74354,203.089,-88.9504)">
            <path d="M889,450C889.1,518.203 864.959,584.27 820.91,636.34C819.31,638.24 817.68,640.11 816.02,641.97C796.485,663.94 773.729,682.818 748.53,697.96C742.75,701.43 736.843,704.7 730.81,707.77C730.2,708.08 729.58,708.39 728.97,708.69C728.24,709.06 727.5,709.42 726.76,709.78C711.493,717.253 695.59,723.35 679.24,728C677.54,728.48 675.837,728.947 674.13,729.4C652.623,735.091 630.529,738.275 608.29,738.89C607.13,738.92 605.99,738.94 604.89,738.96C604.5,738.97 604.12,738.98 603.74,738.98C602.49,738.99 601.25,739 600,739C576.564,739.017 553.213,736.187 530.46,730.57C528.18,730.01 525.91,729.42 523.65,728.8C511.746,725.55 500.064,721.532 488.68,716.77C482.68,714.27 476.787,711.573 471,708.68C469.69,708.02 468.38,707.36 467.09,706.68C466.54,706.41 466,706.12 465.46,705.84C434.619,689.562 406.96,667.861 383.81,641.78C382.21,639.99 380.64,638.17 379.09,636.34C335.129,584.218 311,518.184 311,449.998C311,358.19 354.744,271.668 428.68,217.24C430.32,216.03 431.97,214.83 433.64,213.66C433.97,213.43 434.3,213.2 434.63,212.97C463.973,192.416 496.909,177.543 531.73,169.12C533.71,168.63 535.69,168.17 537.69,167.74C575.406,159.49 614.388,158.807 652.37,165.73C654.36,166.1 656.35,166.48 658.33,166.89C692.84,173.968 725.755,187.335 755.43,206.32C756.09,206.74 756.75,207.16 757.41,207.6C758.74,208.46 760.07,209.34 761.38,210.23C841.135,263.849 889.064,353.897 889,450Z" style="fill:rgb(242,242,242);fill-rule:nonzero;"/>
        </g>
        <g transform="matrix(1,0,0,1,-156,-219.737)">
            <path d="M750.999,464.923L750.999,589.828L799.573,589.828L799.573,463.188L788.297,463.591L788.297,438.033L780.118,438.033L778.771,381.429C782.071,379.279 784.394,374.171 784.394,368.207C784.397,366.495 784.198,364.789 783.8,363.123C787.002,359.659 787.464,354.429 784.92,350.456C786.816,352.113 789.251,353.026 791.768,353.026C797.478,353.026 802.176,348.328 802.176,342.619C802.176,339.521 800.793,336.58 798.407,334.604C802.488,333.099 805.213,329.187 805.213,324.838C805.213,319.128 800.514,314.429 794.804,314.429C789.093,314.429 784.394,319.127 784.394,324.837C784.394,324.99 784.399,325.141 784.405,325.292C783.419,324.99 782.393,324.837 781.362,324.837C776.242,324.837 771.843,328.613 771.067,333.674C769.457,332.716 767.618,332.211 765.745,332.211C760.035,332.211 755.336,336.909 755.336,342.62C755.336,347.517 758.792,351.784 763.582,352.801C763.58,352.877 763.576,352.952 763.576,353.028C764.543,355.945 765.773,358.768 767.252,361.463C766.529,363.637 766.166,365.916 766.178,368.207C766.178,374.171 768.501,379.279 771.801,381.429L770.453,438.033L762.275,438.033L762.275,464.52L750.999,464.923ZM781.331,345.654L781.358,345.655C781.508,345.655 781.657,345.65 781.805,345.644C781.899,345.951 782.006,346.252 782.127,346.547C781.879,346.235 781.613,345.936 781.331,345.654L781.331,345.654Z" style="fill:rgb(226,226,226);fill-rule:nonzero;"/>
        </g>
        <path d="M715.712,450.037C713.201,450.854 710.673,451.624 708.131,452.347C706.867,452.704 705.601,453.051 704.332,453.388C694.684,455.94 684.878,457.815 674.987,459L623.485,459C614.745,457.954 606.069,456.371 597.507,454.258C595.812,453.841 594.124,453.402 592.444,452.941C584.223,450.697 576.145,447.96 568.254,444.744L568.254,288.411L715.712,288.411L715.712,450.037Z" style="fill:rgb(63,61,86);"/>
        <g transform="matrix(-1,7.65714e-16,-7.65714e-16,-1,1439.97,1103.04)">
            <rect x="778.105" y="644.041" width="39.756" height="34.696" style="fill:rgb(226,226,226);"/>
        </g>
        <path d="M582.483,41.325C583.105,43.125 583.433,45.036 583.433,46.984C583.433,56.499 575.603,64.329 566.088,64.329C561.891,64.329 557.834,62.806 554.675,60.045C558.915,66.667 558.144,75.383 552.808,81.158C553.471,83.934 553.803,86.778 553.797,89.632C553.797,102.805 547.001,113.485 538.618,113.485C530.234,113.485 523.438,102.805 523.438,89.632C523.418,85.812 524.023,82.015 525.228,78.39C524.911,77.866 524.621,77.325 524.361,76.77C523.177,75.622 522.174,74.322 521.372,72.915L521.83,72.576C523.049,71.677 524.276,70.784 525.518,69.914C525.763,69.743 526.009,69.572 526.254,69.401C543.531,57.299 562.484,47.845 582.483,41.325Z" style="fill:rgb(226,226,226);fill-rule:nonzero;"/>
        <g transform="matrix(1,0,0,1,-156,-219.737)">
            <path d="M685.941,451.767L703.291,451.767L702.672,425.747L702.672,425.737L700.401,330.327C696.855,332.494 692.377,332.494 688.831,330.327L686.561,425.737L686.561,425.747L685.941,451.767Z" style="fill:rgb(108,99,255);fill-rule:nonzero;"/>
        </g>
        <path d="M498.141,398.447L498.141,250.82L516.931,250.15L516.931,206.01L560.301,206.01L560.301,248.6L579.092,247.93L579.092,448.819C574.827,447.347 570.608,445.739 566.442,443.997C561.981,442.138 557.599,440.133 553.296,437.981C552.322,437.491 551.348,437 550.389,436.494C549.98,436.294 549.579,436.078 549.177,435.87C530.399,425.958 513.207,413.343 498.141,398.447Z" style="fill:rgb(108,99,255);fill-rule:nonzero;"/>
        <g transform="matrix(1,0,0,1,-156,-219.737)">
            <path d="M892.674,451.767L910.022,451.767L907.131,330.331C903.394,331.674 899.303,331.674 895.566,330.331L892.674,451.767Z" style="fill:rgb(108,99,255);fill-rule:nonzero;"/>
        </g>
        <path d="M704.871,453.243L704.871,250.82L723.661,250.15L723.661,206.01L767.031,206.01L767.031,248.6L779.181,248.17L785.831,247.93L785.831,411.504C777.588,418.303 768.838,424.491 759.651,430.011C755.353,432.591 750.962,435.022 746.476,437.305C746.022,437.535 745.561,437.766 745.108,437.989C744.565,438.264 744.015,438.532 743.464,438.799C732.112,444.356 720.288,448.889 708.131,452.347C707.046,452.653 705.96,452.952 704.871,453.243Z" style="fill:rgb(108,99,255);fill-rule:nonzero;"/>
        <path d="M713.369,40.503C730.817,45.955 747.519,53.632 763.058,63.366C765.282,69.382 764.021,76.308 759.539,81.158C760.202,83.934 760.534,86.778 760.528,89.632C760.528,102.805 753.732,113.485 745.348,113.485C736.965,113.485 730.169,102.805 730.169,89.632C730.149,85.812 730.753,82.015 731.959,78.39C731.641,77.866 731.352,77.325 731.092,76.77C727.727,73.51 725.827,69.018 725.832,64.332C725.832,64.206 725.838,64.081 725.841,63.955L725.841,63.955C717.858,62.259 712.098,55.147 712.098,46.985C712.098,44.699 712.55,42.51 713.369,40.503Z" style="fill:rgb(226,226,226);fill-rule:nonzero;"/>
        <g transform="matrix(-1,7.65714e-16,-7.65714e-16,-1,1503.97,857.737)">
            <rect x="819.983" y="528.737" width="20" height="20" style="fill:white;"/>
        </g>
        <g transform="matrix(-1,7.65714e-16,-7.65714e-16,-1,1439.97,857.737)">
            <rect x="787.983" y="528.737" width="20" height="20" style="fill:white;"/>
        </g>
        <g transform="matrix(-1,7.65714e-16,-7.65714e-16,-1,1375.97,857.737)">
            <rect x="755.983" y="528.737" width="20" height="20" style="fill:white;"/>
        </g>
        <g transform="matrix(-1,7.65714e-16,-7.65714e-16,-1,1503.97,921.737)">
            <rect x="819.983" y="560.737" width="20" height="20" style="fill:white;"/>
        </g>
        <g transform="matrix(-1,7.65714e-16,-7.65714e-16,-1,1439.97,921.737)">
            <rect x="787.983" y="560.737" width="20" height="20" style="fill:white;"/>
        </g>
        <g transform="matrix(-1,7.65714e-16,-7.65714e-16,-1,1375.97,921.737)">
            <rect x="755.983" y="560.737" width="20" height="20" style="fill:white;"/>
        </g>
        <g transform="matrix(-1,7.65714e-16,-7.65714e-16,-1,1503.97,985.737)">
            <rect x="819.983" y="592.737" width="20" height="20" style="fill:white;"/>
        </g>
        <g transform="matrix(-1,7.65714e-16,-7.65714e-16,-1,1439.97,985.737)">
            <rect x="787.983" y="592.737" width="20" height="20" style="fill:white;"/>
        </g>
        <g transform="matrix(-1,7.65714e-16,-7.65714e-16,-1,1375.97,985.737)">
            <rect x="755.983" y="592.737" width="20" height="20" style="fill:white;"/>
        </g>
        <g transform="matrix(-1,7.65714e-16,-7.65714e-16,-1,1233.24,841.737)">
            <rect x="684.618" y="520.737" width="20" height="20" style="fill:white;"/>
        </g>
        <g transform="matrix(-1,7.65714e-16,-7.65714e-16,-1,1233.24,905.737)">
            <rect x="684.618" y="552.737" width="20" height="20" style="fill:white;"/>
        </g>
        <g transform="matrix(-1,7.65714e-16,-7.65714e-16,-1,1233.24,969.737)">
            <rect x="684.618" y="584.737" width="20" height="20" style="fill:white;"/>
        </g>
        <g transform="matrix(-1,7.65714e-16,-7.65714e-16,-1,1233.24,1033.74)">
            <rect x="684.618" y="616.737" width="20" height="20" style="fill:white;"/>
        </g>
        <g transform="matrix(-1,7.65714e-16,-7.65714e-16,-1,1646.36,841.737)">
            <rect x="891.181" y="520.737" width="20" height="20" style="fill:white;"/>
        </g>
        <g transform="matrix(-1,7.65714e-16,-7.65714e-16,-1,1646.36,905.737)">
            <rect x="891.181" y="552.737" width="20" height="20" style="fill:white;"/>
        </g>
        <g transform="matrix(-1,7.65714e-16,-7.65714e-16,-1,1646.36,969.737)">
            <rect x="891.181" y="584.737" width="20" height="20" style="fill:white;"/>
        </g>
        <g transform="matrix(-1,7.65714e-16,-7.65714e-16,-1,1646.36,1033.74)">
            <rect x="891.181" y="616.737" width="20" height="20" style="fill:white;"/>
        </g>
        <path d="M680.304,458.295C673.373,459.303 666.392,459.97 659.387,460.295L639.104,460.295L639.013,460.291C635.55,460.128 632.092,459.884 628.641,459.555C625.158,459.223 621.683,458.805 618.22,458.304L618.16,458.295L680.304,458.295Z" style="fill:rgb(63,61,86);"/>
    </g>
</svg>
